<?xml version="1.0" encoding="UTF-8"?>
<svg width="512" height="512" viewBox="0 0 512 512" fill="none" xmlns="http://www.w3.org/2000/svg" role="img" aria-label="Video Transcriber AI logo">
  <defs>
    <linearGradient id="bg" x1="64" y1="64" x2="448" y2="448" gradientUnits="userSpaceOnUse">
      <stop stop-color="#4F46E5"/>
      <stop offset="1" stop-color="#06B6D4"/>
    </linearGradient>
    <linearGradient id="accent" x1="170" y1="140" x2="370" y2="360" gradientUnits="userSpaceOnUse">
      <stop stop-color="#FFFFFF" stop-opacity="0.95"/>
      <stop offset="1" stop-color="#E6F6FF" stop-opacity="0.95"/>
    </linearGradient>
    <filter id="soft" x="-20%" y="-20%" width="140%" height="140%">
      <feGaussianBlur in="SourceAlpha" stdDeviation="6" result="blur"/>
      <feOffset in="blur" dx="0" dy="2" result="off"/>
      <feColorMatrix in="off" type="matrix"
        values="0 0 0 0 0
                0 0 0 0 0
                0 0 0 0 0
                0 0 0 0.18 0" result="shadow"/>
      <feBlend in="SourceGraphic" in2="shadow" mode="normal"/>
    </filter>
    <clipPath id="pad">
      <rect x="64" y="64" width="384" height="384" rx="96" ry="96"/>
    </clipPath>
  </defs>

  <!-- Background rounded square -->
  <rect x="64" y="64" width="384" height="384" rx="96" ry="96" fill="url(#bg)"/>

  <!-- Chat bubble with play icon (video) -->
  <g filter="url(#soft)" clip-path="url(#pad)">
    <path d="M128 176c0-17.673 14.327-32 32-32h160c17.673 0 32 14.327 32 32v64c0 17.673-14.327 32-32 32H196l-36 28c-10.667 8-32 0-32-16v-16c-17.673 0-32-14.327-32-32v-60z"
          fill="url(#accent)"/>
    <!-- Play triangle -->
    <polygon points="184,168 184,272 256,220" fill="#4F46E5" opacity="0.92"/>
  </g>

  <!-- Transcript lines -->
  <g stroke="#FFFFFF" stroke-width="12" stroke-linecap="round" opacity="0.9">
    <line x1="288" y1="212" x2="368" y2="212"/>
    <line x1="288" y1="244" x2="384" y2="244"/>
    <line x1="288" y1="276" x2="360" y2="276"/>
  </g>

  <!-- "AI" motif (simple neural nodes) -->
  <g fill="#FFFFFF" opacity="0.95">
    <circle cx="320" cy="320" r="8"/>
    <circle cx="368" cy="336" r="8"/>
    <circle cx="344" cy="368" r="8"/>
    <path d="M320 320 L368 336 L344 368 Z" fill="none" stroke="#FFFFFF" stroke-width="6" stroke-linecap="round" stroke-linejoin="round" opacity="0.95"/>
  </g>

  <!-- Subtle inner shine -->
  <path d="M64 160c0-35.346 28.654-64 64-64h256c35.346 0 64 28.654 64 64v0c-128 24-256 24-384 0z" fill="#FFFFFF" opacity="0.08"/>
</svg>
